<svg width="32" height="29" viewBox="0 0 32 29" fill="none" xmlns="http://www.w3.org/2000/svg">
<path d="M19.8831 28.3154C17.949 28.3536 16.0436 28.1599 14.119 28.0549C12.0062 27.8939 9.74883 27.853 7.79698 26.9242C6.34845 26.219 5.94471 24.4867 4.7717 23.4474C3.01627 21.8979 1.29357 22.1925 1.61138 19.2559C1.77914 17.1377 -0.29 15.9346 0.0346251 13.7809C0.213305 12.2997 0.391985 10.7434 1.04533 9.38622C2.04648 7.30617 -1.00336 7.71263 0.91575 6.11815C1.48043 5.65031 2.10377 5.15928 2.74347 4.78555C3.39681 4.41864 4.04879 4.00127 4.70077 3.64527C6.9595 2.44225 6.79446 3.90306 6.11521 5.71987C5.64191 6.92971 6.21341 8.54738 5.29955 9.54171C4.80989 10.1132 3.8251 7.5094 3.37772 11.2112C3.24268 12.331 3.18813 13.4768 3.42 14.5734C3.7078 15.9892 4.63939 17.1854 5.07859 18.5044C6.00063 22.063 6.64716 22.1762 10.0203 23.3096C14.0031 24.4213 15.6835 27.7616 20.1423 25.5479C21.4258 24.8877 22.5238 23.9766 23.8114 23.3506C24.8712 22.7804 26.1929 22.4162 26.9881 21.486C27.741 20.5762 27.5568 19.3214 27.8965 18.252C28.1433 17.3777 28.7162 16.4707 28.8608 15.5418C29.2441 13.1576 26.8953 11.5167 26.0619 9.47079C25.028 7.08384 24.6229 5.98175 22.2073 4.68734C20.666 3.89215 19.283 2.56364 17.6148 2.10398C15.8199 1.59659 14.4191 2.80916 13.1847 3.98763C12.7332 4.39818 12.2681 4.79237 11.8152 5.2002C9.96979 6.70738 9.51013 8.65104 9.33827 10.9562C9.24825 12.0978 9.1214 13.294 9.45012 14.4002C9.94933 16.0138 11.5029 17.0804 12.8464 18.0188C16.1581 20.2693 18.8574 21.662 22.0273 18.4266C23.1703 17.3286 24.2519 15.6959 23.6177 14.1206C23.1198 12.8057 21.6972 11.8305 20.6319 10.8075C19.4739 9.85952 18.481 7.744 16.9192 7.63352C14.6687 7.70717 14.3618 11.349 15.6603 12.7048C16.6178 13.635 18.0377 12.9325 19.2502 13.4127C21.2485 14.1888 21.2553 16.4993 19.1111 17.1554C17.9654 17.5032 16.7596 17.1295 15.7162 16.6221C14.4272 15.9551 13.1929 15.2049 12.5832 13.9173C11.8139 12.1564 12.1631 8.25958 13.6389 6.84378C15.427 5.02288 20.4342 4.95605 22.0491 7.24888C22.8661 8.37552 23.1976 9.8036 23.9641 10.9698C24.6925 12.1933 26.0837 13.4904 26.2474 14.7303C26.4234 16.0492 25.2626 17.0476 24.9312 18.2479C24.5956 19.2709 24.8002 20.3894 23.9587 21.1259C23.5113 21.5119 22.903 21.7247 22.3383 21.9088C21.2757 22.243 20.1805 22.5117 19.0552 22.6863C16.7569 23.0696 14.4395 22.7177 12.2326 22.0548C9.32463 21.2405 9.356 20.3362 8.13252 17.9492C7.5842 16.9713 6.75627 16.1652 6.37845 15.0972C5.66646 13.2804 6.62806 9.13798 7.59921 7.40846C8.15025 6.41686 9.02456 5.61348 9.47467 4.56868C9.9466 3.49387 9.89204 2.27857 10.664 1.5052C11.3065 0.858678 12.2217 0.594067 13.0987 0.355372C15.6657 -0.352528 18.4373 0.0580268 20.8611 1.04963C22.6356 1.71116 23.7186 3.21562 25.1085 4.43228C26.2692 5.45662 27.9524 5.89446 28.7803 7.27207C29.3423 8.18866 29.4268 9.36031 29.8769 10.3833C30.2807 11.3572 30.9668 12.2015 31.4782 13.114C32.8354 15.4613 31.1686 16.1815 30.7131 18.2602C30.5439 19.1768 30.8072 20.1561 30.5535 20.9036C30.1907 21.9538 29.0204 22.3589 28.1815 22.9659C27.5036 23.416 26.9703 24.0012 26.5666 24.6941C26.0646 25.552 25.6336 26.4945 24.8043 27.0892C23.4745 28.0467 21.5854 28.2731 19.9131 28.3195H19.8845L19.8831 28.3154Z" fill="black"/>
</svg>
